<svg width="14" height="11" viewBox="0 0 14 11" fill="none" xmlns="http://www.w3.org/2000/svg">
    <path d="M13.7153 2.34462C13.6496 2.26879 13.5683 2.20797 13.477 2.1663C13.3857 2.12463 13.2865 2.10309 13.1861 2.10312H3.51283L3.37633 1.28832C3.34916 1.12487 3.26489 0.976362 3.1385 0.869207C3.01212 0.762051 2.85183 0.703201 2.68613 0.703125H1.11113C0.925481 0.703125 0.747433 0.776875 0.616158 0.90815C0.484883 1.03943 0.411133 1.21747 0.411133 1.40312C0.411133 1.58878 0.484883 1.76682 0.616158 1.8981C0.747433 2.02938 0.925481 2.10312 1.11113 2.10312H2.09323L3.39523 9.91792L3.42673 10.0047L3.46453 10.1104L3.54853 10.2357L3.61503 10.3141L3.75013 10.4051L3.82853 10.4506C3.91009 10.4841 3.99726 10.502 4.08543 10.5031H11.7861C11.9718 10.5031 12.1498 10.4294 12.2811 10.2981C12.4124 10.1668 12.4861 9.98878 12.4861 9.80312C12.4861 9.61747 12.4124 9.43943 12.2811 9.30815C12.1498 9.17688 11.9718 9.10312 11.7861 9.10312H4.67903L4.56283 8.40312H12.4861C12.6546 8.40315 12.8174 8.34243 12.9447 8.23211C13.072 8.12179 13.1552 7.96926 13.1791 7.80253L13.8791 2.90253C13.8934 2.80323 13.8862 2.70202 13.8579 2.60576C13.8296 2.50951 13.781 2.42045 13.7153 2.34462ZM12.379 3.50312L12.1795 4.90312H9.68613V3.50312H12.379ZM8.98613 3.50312V4.90312H6.88613V3.50312H8.98613ZM8.98613 5.60313V7.00312H6.88613V5.60313H8.98613ZM6.18613 3.50312V4.90312H4.08613L3.98253 4.92412L3.74593 3.50312H6.18613ZM4.09593 5.60313H6.18613V7.00312H4.32903L4.09593 5.60313ZM9.68613 7.00312V5.60313H12.0787L11.8792 7.00312H9.68613Z" fill="#008000"/>
    </svg>
    