<svg width="100" height="100" viewBox="0 0 100 100" fill="none" xmlns="http://www.w3.org/2000/svg">
    <path d="M91.6663 49.9987C91.6663 27.0404 72.958 8.33203 49.9997 8.33203C27.0413 8.33203 8.33301 27.0404 8.33301 49.9987C8.33301 62.082 13.5413 72.957 21.7913 80.582C21.7913 80.6237 21.7913 80.6237 21.7497 80.6654C22.1663 81.082 22.6663 81.4154 23.083 81.7904C23.333 81.9987 23.5413 82.207 23.7913 82.3737C24.5413 82.9987 25.3747 83.582 26.1663 84.1654C26.458 84.3737 26.708 84.5404 26.9997 84.7487C27.7913 85.2904 28.6247 85.7904 29.4997 86.2487C29.7913 86.4154 30.1247 86.6237 30.4163 86.7904C31.2497 87.2487 32.1247 87.6654 33.0413 88.0404C33.3747 88.207 33.708 88.3737 34.0413 88.4987C34.958 88.8737 35.8747 89.207 36.7913 89.4987C37.1247 89.6237 37.458 89.7487 37.7913 89.832C38.7913 90.1237 39.7913 90.3737 40.7913 90.6237C41.083 90.707 41.3747 90.7904 41.708 90.832C42.8747 91.082 44.0413 91.2487 45.2497 91.3737C45.4163 91.3737 45.583 91.4154 45.7497 91.457C47.1663 91.582 48.583 91.6654 49.9997 91.6654C51.4163 91.6654 52.833 91.582 54.208 91.457C54.3747 91.457 54.5413 91.4154 54.708 91.3737C55.9163 91.2487 57.083 91.082 58.2497 90.832C58.5413 90.7904 58.833 90.6654 59.1663 90.6237C60.1663 90.3737 61.208 90.1654 62.1663 89.832C62.4997 89.707 62.833 89.582 63.1663 89.4987C64.083 89.1654 65.0413 88.8737 65.9163 88.4987C66.2497 88.3737 66.583 88.207 66.9163 88.0404C67.7913 87.6654 68.6663 87.2487 69.5413 86.7904C69.8747 86.6237 70.1663 86.4154 70.458 86.2487C71.2913 85.7487 72.1247 85.2904 72.958 84.7487C73.2497 84.582 73.4997 84.3737 73.7913 84.1654C74.6247 83.582 75.4163 82.9987 76.1663 82.3737C76.4163 82.1654 76.6247 81.957 76.8747 81.7904C77.333 81.4154 77.7913 81.0404 78.208 80.6654C78.208 80.6237 78.208 80.6237 78.1663 80.582C86.458 72.957 91.6663 62.082 91.6663 49.9987ZM70.583 70.707C59.2913 63.1237 40.7913 63.1237 29.4163 70.707C27.583 71.9154 26.083 73.332 24.833 74.8737C18.4997 68.457 14.583 59.6654 14.583 49.9987C14.583 30.457 30.458 14.582 49.9997 14.582C69.5413 14.582 85.4163 30.457 85.4163 49.9987C85.4163 59.6654 81.4997 68.457 75.1663 74.8737C73.958 73.332 72.4163 71.9154 70.583 70.707Z" fill="#292D32"/>
    <path d="M50 28.875C41.375 28.875 34.375 35.875 34.375 44.5C34.375 52.9583 41 59.8333 49.7917 60.0833C49.9167 60.0833 50.0833 60.0833 50.1667 60.0833C50.25 60.0833 50.375 60.0833 50.4583 60.0833C50.5 60.0833 50.5417 60.0833 50.5417 60.0833C58.9583 59.7917 65.5833 52.9583 65.625 44.5C65.625 35.875 58.625 28.875 50 28.875Z" fill="#292D32"/>
    </svg>
    
    