<svg width="12" height="11" viewBox="0 0 12 11" fill="none" xmlns="http://www.w3.org/2000/svg">
    <path d="M1.152 1.152H2.88L4.032 0H7.488L8.64 1.152H10.368C10.6735 1.152 10.9665 1.27337 11.1826 1.48941C11.3986 1.70545 11.52 1.99847 11.52 2.304V9.216C11.52 9.52153 11.3986 9.81454 11.1826 10.0306C10.9665 10.2466 10.6735 10.368 10.368 10.368H1.152C0.846471 10.368 0.553455 10.2466 0.337413 10.0306C0.121371 9.81454 0 9.52153 0 9.216V2.304C0 1.99847 0.121371 1.70545 0.337413 1.48941C0.553455 1.27337 0.846471 1.152 1.152 1.152ZM5.76 2.88C4.99618 2.88 4.26364 3.18343 3.72353 3.72353C3.18343 4.26364 2.88 4.99618 2.88 5.76C2.88 6.52382 3.18343 7.25636 3.72353 7.79647C4.26364 8.33657 4.99618 8.64 5.76 8.64C6.52382 8.64 7.25636 8.33657 7.79647 7.79647C8.33657 7.25636 8.64 6.52382 8.64 5.76C8.64 4.99618 8.33657 4.26364 7.79647 3.72353C7.25636 3.18343 6.52382 2.88 5.76 2.88ZM5.76 4.032C6.21829 4.032 6.65782 4.21406 6.98188 4.53812C7.30594 4.86218 7.488 5.30171 7.488 5.76C7.488 6.21829 7.30594 6.65782 6.98188 6.98188C6.65782 7.30594 6.21829 7.488 5.76 7.488C5.30171 7.488 4.86218 7.30594 4.53812 6.98188C4.21406 6.65782 4.032 6.21829 4.032 5.76C4.032 5.30171 4.21406 4.86218 4.53812 4.53812C4.86218 4.21406 5.30171 4.032 5.76 4.032Z" fill="#343434"/>
    </svg>
    