<svg width="48" height="49" viewBox="0 0 48 49" fill="none" xmlns="http://www.w3.org/2000/svg">
    <g clip-path="url(#clip0_1032_7003)">
    <path d="M48 24.6729C48 11.418 37.2548 0.672852 24 0.672852C10.7452 0.672852 0 11.418 0 24.6729C0 37.9277 10.7452 48.6729 24 48.6729C37.2548 48.6729 48 37.9277 48 24.6729Z" fill="white"/>
    <path d="M47.5 24.6729C47.5 11.6942 36.9787 1.17285 24 1.17285C11.0213 1.17285 0.5 11.6942 0.5 24.6729C0.5 37.6515 11.0213 48.1729 24 48.1729C36.9787 48.1729 47.5 37.6515 47.5 24.6729Z" stroke="#222222" stroke-opacity="0.4"/>
    <path d="M34 28.8629C34 32.5029 31.83 34.6729 28.19 34.6729H27C26.45 34.6729 26 34.2229 26 33.6729V27.9029C26 27.6329 26.22 27.4029 26.49 27.4029L28.25 27.3729C28.39 27.3629 28.51 27.2629 28.54 27.1229L28.89 25.2129C28.92 25.0329 28.78 24.8629 28.59 24.8629L26.46 24.8929C26.18 24.8929 25.96 24.6729 25.95 24.4029L25.91 21.9529C25.91 21.7929 26.04 21.6529 26.21 21.6529L28.61 21.6129C28.78 21.6129 28.91 21.4829 28.91 21.3129L28.87 18.9128C28.87 18.7428 28.74 18.6129 28.57 18.6129L25.87 18.6529C24.21 18.6829 22.89 20.0429 22.92 21.7029L22.97 24.4529C22.98 24.7329 22.76 24.9529 22.48 24.9629L21.28 24.9828C21.11 24.9828 20.98 25.1128 20.98 25.2828L21.01 27.1829C21.01 27.3529 21.14 27.4828 21.31 27.4828L22.51 27.4629C22.79 27.4629 23.01 27.6828 23.02 27.9529L23.11 33.6529C23.12 34.2129 22.67 34.6729 22.11 34.6729H19.81C16.17 34.6729 14 32.5028 14 28.8528V20.4828C14 16.8428 16.17 14.6729 19.81 14.6729H28.19C31.83 14.6729 34 16.8428 34 20.4828V28.8629Z" fill="#222222"/>
    </g>
    <defs>
    <clipPath id="clip0_1032_7003">
    <rect width="48" height="48" fill="white" transform="translate(0 0.672852)"/>
    </clipPath>
    </defs>
    </svg>
    