<svg width="48" height="49" viewBox="0 0 48 49" fill="none" xmlns="http://www.w3.org/2000/svg">
    <g clip-path="url(#clip0_1032_7007)">
    <path d="M48 24.6729C48 11.418 37.2548 0.672852 24 0.672852C10.7452 0.672852 0 11.418 0 24.6729C0 37.9277 10.7452 48.6729 24 48.6729C37.2548 48.6729 48 37.9277 48 24.6729Z" fill="white"/>
    <path d="M47.5 24.6729C47.5 11.6942 36.9787 1.17285 24 1.17285C11.0213 1.17285 0.5 11.6942 0.5 24.6729C0.5 37.6515 11.0213 48.1729 24 48.1729C36.9787 48.1729 47.5 37.6515 47.5 24.6729Z" stroke="#222222" stroke-opacity="0.4"/>
    <path d="M33.74 24.07C33.69 23.56 33.26 23.18 32.75 23.18H25.2C24.65 23.18 24.2 23.63 24.2 24.18V25.89C24.2 26.44 24.65 26.89 25.2 26.89H29.71C29.6 27.81 29 29.2 27.67 30.13C26.82 30.72 25.69 31.13 24.2 31.13C24.13 31.13 24.07 31.13 24 31.12C21.45 31.04 19.29 29.33 18.51 26.98C18.3 26.35 18.18 25.69 18.18 25C18.18 24.31 18.3 23.64 18.5 23.02C18.56 22.84 18.63 22.66 18.71 22.48C19.63 20.41 21.64 18.95 24 18.88C24.06 18.87 24.13 18.87 24.2 18.87C25.63 18.87 26.7 19.34 27.45 19.86C27.84 20.13 28.36 20.07 28.7 19.74L30.09 18.38C30.53 17.95 30.49 17.22 29.99 16.86C28.4 15.69 26.46 15 24.2 15C24.13 15 24.07 15 24 15.01C20.17 15.08 16.88 17.3 15.27 20.51C14.59 21.87 14.2 23.39 14.2 25C14.2 26.61 14.59 28.13 15.27 29.49H15.28C16.89 32.7 20.18 34.92 24 34.99C24.07 35 24.13 35 24.2 35C26.9 35 29.17 34.11 30.82 32.58C32.71 30.83 33.8 28.27 33.8 25.22C33.8 24.79 33.78 24.42 33.74 24.07Z" fill="#222222"/>
    </g>
    <defs>
    <clipPath id="clip0_1032_7007">
    <rect width="48" height="48" fill="white" transform="translate(0 0.672852)"/>
    </clipPath>
    </defs>
    </svg>
