<svg xmlns="http://www.w3.org/2000/svg" style="display: none;">
  <!-- Facebook Icon -->
  <symbol id="facebook" viewBox="0 0 24 24">
    <path d="M22.675 0h-21.35C.595 0 0 .594 0 1.326v21.348C0 23.405.595 24 1.326 24H12.81v-9.293H9.692v-3.622h3.118V8.413c0-3.1 1.894-4.788 4.659-4.788 1.325 0 2.462.099 2.794.143v3.24h-1.918c-1.504 0-1.796.715-1.796 1.764v2.312h3.588l-.468 3.622h-3.12V24h6.116C23.406 24 24 23.405 24 22.674V1.326C24 .594 23.405 0 22.675 0z"/>
  </symbol>

  <!-- Twitter Icon -->
  <symbol id="twitter" viewBox="0 0 24 24">
    <path d="M23.954 4.569c-.885.392-1.83.656-2.825.775 1.014-.608 1.794-1.574 2.163-2.723-.949.555-2.001.959-3.127 1.184-.897-.959-2.178-1.559-3.594-1.559-2.717 0-4.92 2.203-4.92 4.917 0 .39.045.765.127 1.124-4.086-.205-7.713-2.165-10.141-5.144-.422.725-.664 1.562-.664 2.476 0 1.71.87 3.213 2.191 4.096-.807-.026-1.566-.248-2.228-.616v.061c0 2.385 1.693 4.374 3.946 4.827-.413.111-.849.171-1.296.171-.314 0-.623-.03-.924-.086.631 1.953 2.445 3.376 4.604 3.416-1.68 1.318-3.809 2.104-6.102 2.104-.395 0-.786-.023-1.17-.067 2.179 1.396 4.768 2.212 7.557 2.212 9.054 0 14-7.496 14-13.986 0-.21 0-.423-.015-.633.962-.695 1.797-1.562 2.457-2.549z"/>
  </symbol>

  <!-- Instagram Icon -->
  <symbol id="instagram" viewBox="0 0 24 24">
    <path d="M12 2.163c3.204 0 3.584.012 4.849.07 1.366.062 2.633.32 3.608 1.295.975.975 1.233 2.242 1.295 3.608.058 1.265.07 1.645.07 4.849s-.012 3.584-.07 4.849c-.062 1.366-.32 2.633-1.295 3.608-.975.975-2.242 1.233-3.608 1.295-1.265.058-1.645.07-4.849.07s-3.584-.012-4.849-.07c-1.366-.062-2.633-.32-3.608-1.295-.975-.975-1.233-2.242-1.295-3.608-.058-1.265-.07-1.645-.07-4.849s.012-3.584.07-4.849c.062-1.366.32-2.633 1.295-3.608.975-.975 2.242-1.233 3.608-1.295C8.416 2.175 8.796 2.163 12 2.163M12 0C8.741 0 8.332.015 7.052.073 5.773.132 4.632.372 3.678 1.326 2.723 2.28 2.483 3.421 2.424 4.7.366 6.29 0 7.41 0 12c0 4.59.366 5.71 2.424 7.3.06 1.28.3 2.421 1.254 3.376.954.954 2.095 1.194 3.374 1.254C8.332 23.985 8.741 24 12 24c3.259 0 3.668-.015 4.948-.073 1.28-.06 2.421-.3 3.376-1.254.954-.955 1.194-2.096 1.254-3.376.06-1.28.073-1.689.073-4.948 0-3.259-.015-3.668-.073-4.948-.06-1.28-.3-2.421-1.254-3.376-.955-.954-2.096-1.194-3.376-1.254C15.668.015 15.259 0 12 0zm0 5.838a6.162 6.162 0 100 12.324 6.162 6.162 0 000-12.324zm0 10.162a3.999 3.999 0 110-7.998 3.999 3.999 0 010 7.998zm6.406-11.845a1.44 1.44 0 11-2.88 0 1.44 1.44 0 012.88 0z"/>
  </symbol>

  <!-- LinkedIn Icon -->
  <symbol id="linkedin" viewBox="0 0 24 24">
    <path d="M20.447 20.452H17.2v-5.569c0-1.328-.027-3.042-1.855-3.042-1.858 0-2.143 1.45-2.143 2.945v5.666H9.062V9h3.111v1.561h.044c.434-.82 1.494-1.685 3.073-1.685 3.285 0 3.889 2.162 3.889 4.97v6.606zM5.337 7.433a1.861 1.861 0 01-1.857-1.858c0-1.024.834-1.857 1.857-1.857 1.024 0 1.857.834 1.857 1.857 0 1.024-.833 1.858-1.857 1.858zm-1.556 13.019h3.111V9H3.781v11.452zM22.225 0H1.771C.792 0 0 .771 0 1.771v20.452C0 23.207.792 24 1.771 24h20.452c.98 0 1.771-.793 1.771-1.771V1.771C24 .792 23.207 0 22.225 0z"/>
  </symbol>

  <!-- YouTube Icon -->
  <symbol id="youtube" viewBox="0 0 24 24">
    <path d="M23.498 6.186a2.989 2.989 0 00-2.104-2.104C19.479 3.553 12 3.553 12 3.553s-7.479 0-9.394.529a2.989 2.989 0 00-2.104 2.104C0 8.101 0 12 0 12s0 3.899.502 5.814a2.989 2.989 0 002.104 2.104C4.521 20.447 12 20.447 12 20.447s7.479 0 9.394-.529a2.989 2.989 0 002.104-2.104C24 15.899 24 12 24 12s0-3.899-.502-5.814zm-13.862 8.258V9.555l6.209 2.445-6.209 2.444z"/>
  </symbol>
</svg>
